<svg id="svg" version="1.1" xmlns="http://www.w3.org/2000/svg" xmlns:xlink="http://www.w3.org/1999/xlink" width="400" height="400" viewBox="0, 0, 400,400"><g id="svgg"><path id="path0" d="M298.600 182.052 C 264.949 185.265,245.688 209.165,250.583 241.634 C 252.597 254.998,259.553 266.140,271.334 274.876 C 278.430 280.137,284.653 283.410,301.000 290.480 C 320.458 298.895,326.065 302.566,329.197 308.937 C 336.386 323.561,322.317 337.156,302.024 335.198 C 290.416 334.077,281.275 329.036,273.381 319.403 C 268.721 313.716,266.715 313.918,253.861 321.367 C 238.755 330.122,238.040 332.123,246.353 342.405 C 260.108 359.416,280.929 368.400,306.600 368.400 C 347.018 368.400,371.224 345.791,368.419 310.659 C 366.415 285.557,353.532 272.268,315.238 255.800 C 292.177 245.882,286.986 241.322,287.012 231.000 C 287.057 213.309,308.493 208.477,323.400 222.798 C 330.122 229.255,330.799 229.165,344.800 219.956 C 355.588 212.860,356.898 210.392,352.997 204.516 C 342.492 188.695,321.183 179.895,298.600 182.052 M186.049 184.401 C 184.039 184.875,182.717 186.011,181.600 188.221 L 180.600 190.200 180.373 254.000 C 180.138 320.027,180.164 319.053,178.465 323.527 C 173.066 337.735,154.228 339.344,143.176 326.540 C 142.199 325.409,140.514 323.452,139.432 322.193 C 135.032 317.072,133.597 317.330,119.815 325.712 C 106.781 333.640,105.840 335.512,110.924 343.400 C 124.803 364.936,156.401 374.172,184.600 364.935 C 202.068 359.213,212.257 346.729,216.703 325.600 C 217.523 321.704,217.987 193.331,217.194 189.680 C 216.611 186.994,214.827 185.103,212.269 184.459 C 210.178 183.933,188.238 183.884,186.049 184.401 " stroke="none" fill="#050504" fill-rule="evenodd"></path><path id="path1" d="M0.000 200.000 L 0.000 400.000 200.000 400.000 L 400.000 400.000 400.000 200.000 L 400.000 0.000 200.000 0.000 L 0.000 0.000 0.000 200.000 M310.400 182.008 C 327.303 183.482,337.913 188.146,347.849 198.468 C 357.958 208.970,357.593 211.541,344.800 219.956 C 330.799 229.165,330.122 229.255,323.400 222.798 C 308.493 208.477,287.057 213.309,287.012 231.000 C 286.986 241.322,292.177 245.882,315.238 255.800 C 353.532 272.268,366.415 285.557,368.419 310.659 C 371.224 345.791,347.018 368.400,306.600 368.400 C 280.929 368.400,260.108 359.416,246.353 342.405 C 238.040 332.123,238.755 330.122,253.861 321.367 C 266.715 313.918,268.721 313.716,273.381 319.403 C 281.275 329.036,290.416 334.077,302.024 335.198 C 322.317 337.156,336.386 323.561,329.197 308.937 C 326.065 302.566,320.458 298.895,301.000 290.480 C 277.084 280.136,267.480 273.882,259.761 263.620 C 246.671 246.221,246.469 218.959,259.304 201.927 C 269.937 187.815,289.507 180.186,310.400 182.008 M212.269 184.459 C 214.827 185.103,216.611 186.994,217.194 189.680 C 217.987 193.331,217.523 321.704,216.703 325.600 C 212.257 346.729,202.068 359.213,184.600 364.935 C 156.401 374.172,124.803 364.936,110.924 343.400 C 105.840 335.512,106.781 333.640,119.815 325.712 C 133.597 317.330,135.032 317.072,139.432 322.193 C 140.514 323.452,142.199 325.409,143.176 326.540 C 154.228 339.344,173.066 337.735,178.465 323.527 C 180.164 319.053,180.138 320.027,180.373 254.000 L 180.600 190.200 181.600 188.221 C 182.717 186.011,184.039 184.875,186.049 184.401 C 188.238 183.884,210.178 183.933,212.269 184.459 " stroke="none" fill="#f4dc1b" fill-rule="evenodd"></path></g></svg>